<svg id="Layer_5" enable-background="new 0 0 64 64" height="512" viewBox="0 0 64 64" width="512" xmlns="http://www.w3.org/2000/svg"><path d="m31 46h2v2h-2z"/><path d="m63 25v-2h-2c-.85 0-1.658.18-2.391.5.893-.519 1.653-1.243 2.183-2.161.802-1.388 1.015-3.005.6-4.553l-.518-1.933-1.932.519c-.826.221-1.57.617-2.215 1.139.747-.739 1.306-1.649 1.585-2.69.414-1.548.201-3.165-.6-4.553l-1-1.732-1.732 1c-.672.388-1.246.896-1.712 1.488.459-.858.703-1.822.703-2.823 0-1.603-.624-3.109-1.758-4.243l-1.414-1.414-1.414 1.414c-.639.639-1.087 1.392-1.377 2.19-1.363-2.47-3.992-4.148-7.008-4.148h-2v1c0 3.13 1.811 5.839 4.437 7.152-.402.246-.781.535-1.123.877l-1.414 1.415 1.414 1.414c.724.723 1.6 1.237 2.556 1.515l-.281.162 1 1.732c.516.893 1.251 1.599 2.112 2.116l-.348.093.518 1.932c.27 1.008.783 1.886 1.459 2.591h-.33v2c0 1.043.269 2.025.739 2.88l-.317-.085-.518 1.932c-.265.989-.271 2.005-.034 2.972l-.282-.163-1 1.731c-1.599 2.772-.724 6.297 1.926 8.021-1.129 1.358-2.422 2.601-3.861 3.711h-2.833l.499-2.493-6.856 2.285-4.463-7.806-4.462 7.808-6.856-2.285.498 2.493h-2.833c-1.439-1.11-2.732-2.353-3.861-3.711 2.65-1.725 3.525-5.249 1.926-8.021l-1-1.731-.282.163c.237-.967.231-1.984-.034-2.972l-.518-1.932-.317.085c.47-.856.739-1.838.739-2.881v-2h-.328c.676-.705 1.189-1.583 1.459-2.591l.518-1.932-.348-.093c.86-.517 1.596-1.223 2.112-2.116l1-1.732-.281-.162c.956-.279 1.832-.792 2.556-1.515l1.414-1.414-1.414-1.415c-.342-.342-.721-.631-1.123-.877 2.624-1.314 4.435-4.023 4.435-7.153v-1h-2c-3.016 0-5.645 1.678-7.008 4.149-.29-.798-.738-1.551-1.377-2.19l-1.414-1.414-1.414 1.414c-1.134 1.133-1.758 2.64-1.758 4.243 0 1.001.243 1.964.703 2.823-.466-.592-1.04-1.1-1.712-1.488l-1.732-1-1 1.732c-.801 1.388-1.014 3.004-.6 4.553.279 1.041.839 1.951 1.585 2.69-.645-.522-1.389-.918-2.215-1.139l-1.932-.519-.518 1.933c-.415 1.548-.202 3.165.6 4.553.53.918 1.29 1.642 2.183 2.161-.733-.321-1.541-.501-2.391-.501h-2v2c0 2.701 1.794 4.989 4.253 5.739-.749-.09-1.516-.039-2.266.162l-1.932.518.518 1.932c.414 1.548 1.407 2.842 2.795 3.643.88.508 1.853.772 2.841.797-.751.101-1.494.344-2.19.746l-1.732 1 1 1.731c1.11 1.923 3.131 2.999 5.206 2.999 1.018 0 2.048-.259 2.99-.803l.263-.151c.767.947 1.603 1.845 2.509 2.688h-1.255v5h-12.081l4.801 6-4.801 6h24.081v-7h12v7h24.081l-4.801-6 4.801-6h-12.081v-5h-1.255c.906-.842 1.742-1.741 2.509-2.688l.263.151c.942.544 1.973.803 2.99.803 2.075 0 4.096-1.076 5.206-2.999l1-1.731-1.732-1c-.695-.402-1.439-.645-2.19-.746.989-.025 1.961-.288 2.841-.797 1.388-.801 2.381-2.095 2.795-3.643l.518-1.932-1.932-.518c-.749-.201-1.515-.252-2.263-.163 2.457-.751 4.25-3.038 4.25-5.738zm-49.724 15.688c-.077-.11-.156-.22-.231-.331-.375-.836-.47-1.762-.23-2.659.277-1.032.938-1.895 1.864-2.429 1.09 1.888.456 4.299-1.403 5.419zm-.511-7.409c-.523.906-1.364 1.554-2.367 1.841-.048-.134-.088-.27-.133-.405-.14-.898.01-1.809.47-2.607.534-.925 1.397-1.587 2.43-1.864.275 1.032.134 2.11-.4 3.035zm-3.675-4.288c-.013-.159-.031-.316-.041-.475.242-1.976 1.911-3.516 3.951-3.516 0 2.175-1.746 3.942-3.91 3.991zm.303-6.256c.031-.172.06-.345.095-.517.335-.806.907-1.484 1.676-1.927.926-.534 2.004-.675 3.035-.4-.563 2.099-2.704 3.351-4.806 2.844zm-.19 14.782c.056.128.118.253.177.38-.396-.092-.801-.144-1.209-.155.251-.034.502-.083.751-.15zm5.048-20.385c-1 .268-2.04.135-2.946-.36.073-.155.141-.311.217-.464 1.202-1.567 3.402-2.055 5.158-1.04-.534.925-1.397 1.587-2.429 1.864zm6.021-5.688c-1.49 1.489-4.064 1.503-5.586.057.108-.127.213-.257.323-.382.697-.54 1.538-.847 2.434-.847 1.069 0 2.074.416 2.829 1.172zm2.645-8.444c-.474 2.808-2.903 4.959-5.834 5 .474-2.808 2.903-4.959 5.834-5zm-9.716 1.373c1.559 1.56 1.559 4.097 0 5.657-.756-.756-1.172-1.76-1.172-2.828 0-1.069.416-2.074 1.172-2.829zm-1.414 7.07.226.227c-.085.117-.174.232-.258.35-.134-.448-.324-.867-.552-1.264.179.24.369.472.584.687zm-3.767-1.175c.926.534 1.587 1.396 1.864 2.429.276 1.032.134 2.11-.4 3.035-.926-.534-1.587-1.396-1.864-2.429-.277-1.032-.135-2.11.4-3.035zm.463 7.196.279.161c-.053.137-.105.274-.156.411-.265-.433-.588-.813-.943-1.159.258.213.525.417.82.587zm-3.943-.16c1.032.276 1.895.938 2.429 1.863s.676 2.003.399 3.036c-1.032-.277-1.895-.938-2.429-1.864s-.675-2.003-.399-3.035zm2.311 6.83.303.081c-.016.143-.026.286-.039.429-.334-.315-.703-.592-1.101-.825.271.119.544.237.837.315zm-3.851.866c2.206 0 4 1.794 4 4-2.206 0-4-1.794-4-4zm4 6h.312c.021.138.037.277.06.414-.367-.197-.748-.353-1.139-.468.252.032.507.054.767.054zm-3.495 1.833c1.031-.276 2.109-.134 3.035.399.925.534 1.587 1.396 1.863 2.429-1.03.278-2.109.135-3.035-.399-.925-.534-1.587-1.397-1.863-2.429zm2.515 7.436c1.911-1.105 4.358-.447 5.462 1.46 0 .001.001.002.001.003-1.913 1.104-4.361.445-5.463-1.463zm41.98 7.731v6h-6.78l1.2-6zm-19.538.208 3.538-6.192 3.538 6.192 5.144-1.715-.702 3.507h-6.98v2h6.58l-.4 2h-14.36l-.4-2h6.58v-2h-6.98l-.701-3.507zm-5.682 5.792h-6.78v-6h5.58zm-13.5 3-3.199-4h7.919v2.521l7.828 5.479h-15.747zm14.72 3.079-5.828-4.079h5.828zm21.828-4.079-5.828 4.079v-4.079zm12.091-3-3.199 4 3.199 4h-15.747l7.828-5.479v-2.521zm-2.84-15.407c.249.067.499.115.751.15-.408.011-.813.063-1.209.155.059-.127.12-.252.177-.38zm-2.243-17.301c.769.444 1.341 1.122 1.676 1.927.035.171.064.344.095.516-2.103.508-4.243-.744-4.806-2.844 1.032-.275 2.109-.134 3.035.401zm2.115 8.224c-.01.159-.028.317-.041.475-2.164-.049-3.91-1.816-3.91-3.991 2.04 0 3.709 1.54 3.951 3.516zm-1.685 3.592c.461.798.61 1.708.471 2.607-.045.135-.086.271-.133.405-1.003-.286-1.844-.935-2.367-1.841-.534-.925-.676-2.002-.399-3.035 1.03.277 1.893.939 2.428 1.864zm3.619-7.463c-.013-.143-.023-.286-.039-.429l.303-.081c.292-.078.565-.196.838-.315-.399.233-.768.509-1.102.825zm2.575-7.341c.276 1.032.135 2.11-.399 3.035s-1.396 1.587-2.429 1.864c-.276-1.032-.135-2.11.399-3.036.534-.925 1.397-1.586 2.429-1.863zm-4.067.732c-.051-.138-.103-.275-.156-.411l.279-.161c.295-.171.563-.374.82-.587-.355.346-.677.726-.943 1.159zm-1.277-5.339c.277-1.032.938-1.895 1.864-2.429.534.925.677 2.003.4 3.035s-.938 1.895-1.864 2.429c-.534-.925-.676-2.003-.4-3.035zm-1.32-1.941c-.227.397-.418.816-.552 1.264-.083-.118-.172-.233-.258-.35l.226-.226c.216-.216.406-.448.584-.688zm-1.997-6.383c.756.756 1.172 1.76 1.172 2.829 0 1.068-.416 2.072-1.172 2.828-1.559-1.56-1.559-4.098 0-5.657zm-9.716-1.373c2.931.04 5.36 2.192 5.834 4.999-2.931-.04-5.36-2.191-5.834-4.999zm2.645 8.443c.756-.755 1.761-1.171 2.829-1.171.896 0 1.737.307 2.434.847.11.125.215.255.323.382-1.522 1.446-4.097 1.432-5.586-.058zm8.751 4.865c.076.153.144.31.217.465-.905.493-1.945.627-2.947.359-1.032-.277-1.895-.938-2.429-1.864 1.754-1.013 3.956-.527 5.159 1.04zm-3.159 18.96c.926.535 1.587 1.397 1.864 2.43.24.897.145 1.823-.23 2.659-.075.112-.154.221-.231.331-1.859-1.121-2.492-3.532-1.403-5.42zm3.197 6.464c.001-.001.001-.002.001-.003 1.104-1.907 3.553-2.564 5.462-1.46-1.103 1.908-3.552 2.568-5.463 1.463zm7.978-8.899c-.276 1.033-.938 1.895-1.863 2.429s-2.003.675-3.035.399c.276-1.032.938-1.895 1.863-2.429.926-.533 2.004-.675 3.035-.399zm-3.867-1.419c.023-.137.039-.276.06-.414h.312c.259 0 .513-.022.763-.054-.39.116-.769.271-1.135.468zm.372-2.414c0-2.206 1.794-4 4-4 0 2.206-1.794 4-4 4z"/></svg>